# Blender v2.79 (sub 0) OBJ File: ''
# www.blender.org
o Cube
v 0.258275 -0.334169 -7.317892
v 0.258275 -0.334169 7.251071
v -0.110061 -0.334169 7.251070
v -0.110061 -0.334169 -7.317895
v 0.258275 4.760852 -7.317889
v 0.258275 4.760852 7.251076
v -0.110061 4.760852 7.251069
v -0.110061 4.760852 -7.317893
vt 0.000000 0.000000
vt -1.000000 -1.000000
vt -1.000000 0.000000
vt 0.000000 1.000000
vt -1.000000 0.000000
vt -0.000000 -0.000000
vt 0.997086 0.990970
vt 0.007008 0.313411
vt 0.997087 0.323333
vt -0.257953 1.134829
vt -1.000000 0.239002
vt -0.143858 0.407663
vt 0.003937 1.002767
vt 0.996875 0.329627
vt 0.000000 0.329559
vt 0.000000 -0.760998
vt -1.000000 0.239002
vt 0.000000 0.239002
vt 0.000000 -1.000000
vt -1.014882 1.029764
vt 0.007008 1.000892
vt -1.000000 1.239002
vt 1.003937 0.990955
vt -1.000000 -0.760998
vn 0.0000 -1.0000 0.0000
vn 0.0000 1.0000 -0.0000
vn 1.0000 -0.0000 0.0000
vn -0.0000 -0.0000 1.0000
vn -1.0000 -0.0000 -0.0000
vn 0.0000 0.0000 -1.0000
s off
f 1/1/1 3/2/1 4/3/1
f 5/4/2 7/5/2 6/6/2
f 5/7/3 2/8/3 1/9/3
f 6/10/4 3/11/4 2/12/4
f 7/13/5 4/14/5 3/15/5
f 1/16/6 8/17/6 5/18/6
f 1/1/1 2/19/1 3/2/1
f 5/4/2 8/20/2 7/5/2
f 5/7/3 6/21/3 2/8/3
f 6/10/4 7/22/4 3/11/4
f 7/13/5 8/23/5 4/14/5
f 1/16/6 4/24/6 8/17/6
