# Blender v2.79 (sub 0) OBJ File: ''
# www.blender.org
o Cube
v 1.537386 0.152726 -0.789269
v 1.370923 0.287786 1.199210
v -0.656441 0.211168 1.128408
v -0.656440 0.211168 -0.871593
v 1.316196 2.134551 -0.942394
v 1.149732 2.269611 1.046085
v -0.656441 2.211168 1.128407
v -0.656441 2.211168 -0.871592
v 0.590752 -0.161124 -2.666241
v 0.245449 0.087626 -0.712043
v 0.165256 1.766619 -2.986807
v -0.180047 2.015368 -1.032609
vt 1.000000 0.000000
vt 0.000000 1.000000
vt 0.000000 0.000000
vt 1.000000 0.000000
vt 0.000000 1.000000
vt 0.000000 0.000000
vt 0.000000 1.000000
vt 0.000000 0.000000
vt 1.000000 0.000000
vt 0.000000 1.000000
vt 0.000000 0.000000
vt 1.000000 0.000000
vt 0.000000 0.000000
vt 1.000000 1.000000
vt 0.000000 1.000000
vt 1.000000 0.000000
vt 0.000000 1.000000
vt 0.000000 0.000000
vt 0.000000 0.000000
vt 1.000000 0.000000
vt 1.000000 0.000000
vt 1.000000 0.000000
vt 1.000000 0.000000
vt 1.000000 1.000000
vt 1.000000 1.000000
vt 1.000000 1.000000
vt 1.000000 1.000000
vn 0.7523 -0.4935 0.4364
vn -0.5759 -0.5861 -0.5698
vn -0.7912 0.4306 -0.4342
vn -0.5828 0.5782 -0.5710
vn 0.6925 0.6042 0.3940
vn -0.5871 -0.6804 -0.4384
vn 0.8336 -0.5462 -0.0819
vn 0.2435 -0.3869 0.8894
vn -0.5695 -0.5836 0.5788
vn -0.5733 0.5649 0.5934
vn 0.6772 0.6991 -0.2294
vn 0.0179 0.6735 0.7389
s 1
f 2/1/1 4/2/2 1/3/3
f 8/4/4 6/5/5 5/6/6
f 5/6/6 12/7/7 11/8/8
f 6/9/5 3/10/9 2/11/1
f 7/12/10 4/2/2 3/13/9
f 5/6/6 4/14/2 8/15/4
f 11/16/8 10/17/11 9/18/12
f 6/9/5 10/19/11 12/20/7
f 5/6/6 9/21/12 1/22/3
f 1/3/3 10/23/11 2/1/1
f 2/1/1 3/24/9 4/2/2
f 8/4/4 7/25/10 6/5/5
f 5/6/6 6/5/5 12/7/7
f 6/9/5 7/25/10 3/10/9
f 7/12/10 8/26/4 4/2/2
f 5/6/6 1/22/3 4/14/2
f 11/16/8 12/27/7 10/17/11
f 6/9/5 2/11/1 10/19/11
f 5/6/6 11/8/8 9/21/12
f 1/3/3 9/18/12 10/23/11
